/* XPM */
static char *_27033406b1447ccda1b98e8a32dcfc4Z60jSbmQSX0CeJvw[] = {
/* columns rows colors chars-per-pixel */
"64 64 256 2 ",
"   c #0B0400",
".  c #010D00",
"X  c #0D0B00",
"o  c #060600",
"O  c #130C01",
"+  c #1A0D02",
"@  c #170805",
"#  c #0C1302",
"$  c #0D1B01",
"%  c #0D1C0C",
"&  c #071507",
"*  c #141403",
"=  c #1B1404",
"-  c #141B02",
";  c #1C1C04",
":  c #1C140A",
">  c #151B0C",
",  c #1D1B0B",
"<  c #16150C",
"1  c #1E1E12",
"2  c #161B12",
"3  c #0F1C12",
"4  c #2C0A03",
"5  c #240C03",
"6  c #360A01",
"7  c #241403",
"8  c #2A1303",
"9  c #231C04",
"0  c #2B1B03",
"q  c #231509",
"w  c #2C160C",
"e  c #231C0B",
"r  c #2B1D0C",
"t  c #331402",
"y  c #3B1501",
"u  c #331C03",
"i  c #3A1B04",
"p  c #32150C",
"a  c #331B0C",
"s  c #3D190B",
"d  c #231D11",
"f  c #2A1D11",
"g  c #2B1B17",
"h  c #331C13",
"j  c #3B1B13",
"k  c #0E2406",
"l  c #152203",
"z  c #1C2404",
"x  c #13240A",
"c  c #1C230C",
"v  c #132B0D",
"b  c #1C2B0C",
"n  c #182904",
"m  c #1B310D",
"M  c #0C2714",
"N  c #1C2213",
"B  c #1C2C12",
"V  c #192916",
"C  c #1A3316",
"Z  c #0A3210",
"A  c #222204",
"S  c #23230D",
"D  c #2A230C",
"F  c #242C0B",
"G  c #2A290C",
"H  c #292703",
"J  c #3D2004",
"K  c #34240D",
"L  c #3C230B",
"P  c #38280A",
"I  c #26310B",
"U  c #37330D",
"Y  c #242313",
"T  c #2B2513",
"R  c #252A13",
"E  c #2C2A15",
"W  c #25251A",
"Q  c #2A251B",
"!  c #252A1B",
"~  c #2B2A1C",
"^  c #332515",
"/  c #322A15",
"(  c #3B2915",
")  c #32251B",
"_  c #3C251B",
"`  c #322C1B",
"'  c #3C2C1B",
"]  c #3B2515",
"[  c #2D311B",
"{  c #273217",
"}  c #34321D",
"|  c #39331D",
" . c #383616",
".. c #232B21",
"X. c #2D2D22",
"o. c #2C2823",
"O. c #322D23",
"+. c #3C2C23",
"@. c #342B27",
"#. c #253223",
"$. c #2E3224",
"%. c #2D342A",
"&. c #2B382D",
"*. c #323225",
"=. c #3B3323",
"-. c #3A3A25",
";. c #35352A",
":. c #3B352C",
">. c #353A2B",
",. c #3A3A2D",
"<. c #353925",
"1. c #343D32",
"2. c #3D3D32",
"3. c #3A3733",
"4. c #2D3D32",
"5. c #430800",
"6. c #481905",
"7. c #571805",
"8. c #50140D",
"9. c #6B0E00",
"0. c #671805",
"q. c #751602",
"w. c #770900",
"e. c #49240B",
"r. c #57220B",
"t. c #422412",
"y. c #442D1C",
"u. c #482818",
"i. c #562618",
"p. c #46351B",
"a. c #56371A",
"s. c #68240B",
"d. c #782508",
"f. c #672A15",
"g. c #7B2A16",
"h. c #77351C",
"j. c #6D3419",
"k. c #472D25",
"l. c #552D25",
"z. c #443424",
"x. c #443A25",
"c. c #4B3A22",
"v. c #41352B",
"b. c #433A2C",
"n. c #4C3C2B",
"m. c #4C3426",
"M. c #553A28",
"N. c #433D33",
"B. c #483D35",
"V. c #573B34",
"C. c #673529",
"Z. c #763825",
"A. c #683C33",
"S. c #723B34",
"D. c #3D422C",
"F. c #3D4133",
"G. c #3D433A",
"H. c #38463B",
"J. c #49432C",
"K. c #56442B",
"L. c #424235",
"P. c #44453A",
"I. c #49463B",
"U. c #45493A",
"Y. c #4B4A3D",
"T. c #4A4735",
"R. c #534C36",
"E. c #534B3C",
"W. c #5B4736",
"Q. c #4E513F",
"!. c #59543B",
"~. c #684937",
"^. c #77483D",
"/. c #68523C",
"(. c #694C2E",
"). c #4D4D42",
"_. c #474944",
"`. c #524D43",
"'. c #574B46",
"]. c #4B5147",
"[. c #535245",
"{. c #555449",
"}. c #5B5A4D",
"|. c #595647",
" X c #5B5D52",
".X c #684742",
"XX c #7B4B43",
"oX c #675748",
"OX c #765647",
"+X c #655D54",
"@X c #725F51",
"#X c #626155",
"$X c #686759",
"%X c #776757",
"&X c #6F6853",
"*X c #786C62",
"=X c #757464",
"-X c #7B7A6C",
";X c #797666",
":X c #757369",
">X c #566256",
",X c #841903",
"<X c #880A00",
"1X c #8A2B0D",
"2X c #872A13",
"3X c #972617",
"4X c #903816",
"5X c #A82917",
"6X c #AF301B",
"7X c #893927",
"8X c #9A3823",
"9X c #9F3C36",
"0X c #A83625",
"qX c #B53A2A",
"wX c #B1372E",
"eX c #C53B2B",
"rX c #C1361F",
"tX c #924427",
"yX c #8C4837",
"uX c #AC442B",
"iX c #B55339",
"pX c #C2493F",
"aX c #875649",
"sX c #90564B",
"dX c #B05747",
"fX c #8B675B",
"gX c #876C59",
"hX c #976C63",
"jX c #897C6B",
"kX c #997868",
"lX c #9E7E72",
"zX c #877168",
"xX c #B27A6A",
"cX c #D7685A",
"vX c #DA6556",
"bX c #7E816F",
"nX c #8B8C7B",
"mX c #868575",
"MX c #968778",
"NX c #91937F",
"BX c #8B826E",
"VX c #A78A7A",
"CX c #A9907C",
"ZX c #989587",
"AX c #908D81",
"SX c #A48D83",
"DX c #AA9A88",
"FX c #A49C92",
"GX c #B49E93",
"HX c #ACA99F",
"JX c #B3A69A",
"KX c #B7B1A4",
"LX c #C39A8C",
"PX c #E3A69A",
"IX c #D5C7BC",
"UX c #E8DED4",
/* pixels */
"Y W ! *.;.2.[.#XnXmX-X=X-XmX-X X$XL.! L.$X#X}.$X+X+X}.`.P.,.*.W T Q ` ` ` ` T T ` ` ` / E T T D T / ` ` E T T T D ` | / T T T ` ",
"W W ! ! W W X.,.;.P.).[.}. X#X}.{.Y.}.$X}.}.$X=X#X[.Y.}.-X-X{.~ ~ d e T Q T T / T ~ ` ` / E T T T / ` ` / E / / T / ` T e S T E ",
"! ! X.X.W Y W X.W ! X.X.*.,.Y.[.Y.;.[.*X$X;X-X[.;.I.{.Y.,.O.*.;.;.T e ` *.T T ` e T / ` ` / T T T / ` | ` ( ` ` T / / T T T T T ",
"W ! X.*.X.! X.;.2.X.Y Y X.*.;.;.~ ~ ).$X#X+X}.,.;.I.`.L.O.O.L.[.;.W Y ` O.T q e T T T / ` ` / T T / ` ` ` ( ` ` / ( / E / / E T ",
"! W ! W Y 1 W X.;.! Y X.,.,.X.Y ;.,.P.[.{.L.;.;.L.P.I.L.L.L.L.N.I.I.L.b.L.L.,.` / T T T / ' ` T T E / / ~ E E E ` ` ` ` | | / S ",
"*.X.! W Y Y W X.*.*.*.;.2.2.,.,.Y.I.;.,.I.2.;.L.O.;.,.*.W W Y d ;.;.~ e Y ` ` T ` T T T ) ' ` T E E E E E E T T E E E ` | | E S ",
";.*.*.*.*.X.;.2.,.2.2.;.,.P.).Y.;.N.I.,.! X.L.{.,.O.Y d ! ;.O.W ,.*.~ W W ~ ~ ~ T T T ^ ^ ^ ( ` ` ` / / / / ~ E T E T T / ` / T ",
",.;.;.;.;.*.;.2.X.*.;.*.2.).Y.,.,.! O.X.W L.).W ;.;.*.W , , < * ,.;.*.;.*.W T ~ e T ` ` ^ T ^ ' ` ` ` ` ( ` ` ` E E T T E ` ` E ",
";.*.;.2.L.L.P.).L.2.;.X.;.2.,.X.*.o.Q ! *.:.;.O.2.O.W Q {.ZXKXFXjX`.W ~ ` W ~ T T T / ` ` ^ ^ / ` *.*.~ E ` ~ T ` | } E E ` ` E ",
"X.X.*.,.2.2.L.Y.P.2.*.X.*.;.*.W Q o.O.;.:.:.@.X.:.Q N.*XmXZXHXHXHX=X;.T ~ Y b.=./ / T T T / | =.E ~ ` E E ` ` E E ` ` E E ` ` ~ ",
"*.*.;.2.2.,.2.P.Y.,.! ! *.*.! W W o.:.2.3.;.O.O.O.: :.#X}.{.:XAXKXKX$Xe ` d T e Y ~ ` / ( =.| ` Y T E T E ~ ~ E T E E T E ~ ` ~ ",
",.,.2.L.2.;.,.L.2.! 1 W X.X.! W o.O.;.;.;.;.@.O.O.Q N.Y.*.P.-XZXMXUXKXf b.N.e T e ~ ` ` | =.` S T E E E E E E E E E E E E E E E ",
",.;.;.,.;.X.*.,.,.W , Y ! ! W W O.O.*.;.;.;.@.X.W Q 2.;.2 o.).}.`.FXIXO.q =.= ` / / T e Y ~ ~ Y E E E E ~ ~ ~ ~ ~ ~ E E E E E E ",
"X.! W ! X.! ! *.L.;.! ! X.X.X.X.o.O.;.3.2.;.X.W ;.;.N.N.@.W O.3.|.*XIXMXT =.T ` ~ Y e S E ~ E Y Y S Y E ~ ~ ~ } } ~ E E E Y Y E ",
";.! Y ! X.X.X.;.P.2.;.X.X.*.*.X.X.*.3.2.3.;.X.Q W o.o.*.3.@.X.B.'.+XGXJXB.=.T T / Y S R } ~ S c S e S Y E T E ~ ~ E T E E Y Y E ",
"P.;.X.*.;.;.,.2.,.,.*.W Y ! X.W *.;.2.3.*.X.O.;.Q N.:.O.:.O., d b.%X*XSXoXW.n.oXn.^ q T E Y S R S , e S S S S Y E S S T T S S E ",
"*.*.*.X.*.;.*.X.*.*.*.*.*.*.O.X.*.>.2.$.;.:.W o.I.b.E.oXoXoX/.@X@Xa W.MXlXlXVXVXkXkXW.8 ' D E S E E G S S S S S R E R S c c c ; ",
"! X.X.*.;.,.;.*.Y *.P.Y.2.X.W W W $.,.! Y o.@.`.:.+.'.%X%XoXM.K.n.%XCXVXlXhX^.~.aXaXOX/.y.D / E E R R E R R E E S S S S S E R E ",
"X.X.! W W X.X.! ! ;.L.P.,.;.;.>.$.>.2.N < W O.'.'.+.+.' ] 0 8 ' b.T.MXDXjXOXM.t.OX/.W.&X| E R ; S S R R S S S S R R Y c c S S ; ",
"L.2.;.X.X.;.2.L.P.2.;.*.;.,.N.F.,.>.;.1 1 Q Q :.N.h _ z.m.m.y./.R.* x.%X%XoXK.u.K.M.c.R.| E [ R Y Y Y R R R [ } } | } } *.-.,.-.",
",.2.,.,.,.P.).).P.L.,.;.;.;.*.! >.$.~ , d o.g O.+.w ^ _ _ p 5 a z.' r w W./.u.t.K.%XgX%XzX#X=XmX=X=X-XmXnXNXAXNXmXnXnXmXmXnXNXNX",
"! *.,.,.2.2.2.,.*.;.,.;.X.! ! X.*.*.$., < , : ) h 5 5 5 8 a s m.a y.m.a s u.s t ~.hXlXkXDXjXjXBX=X-XmXnXnXnXmXmXbXmXmXmXbXmXnXAX",
"*.,.2.2.,.,.;.X.W ! X.X.! X.;.2.;.,.,.Y < < O d g w h p w p 4 4 p s A.A.8.i.i.i.C.A.~.OXOXV.m.+.[.|.}.{.U.F.L.P.U.[.}.{.[.}.$X=X",
"! X.X.! W ! X.X.W W ! *.,.2.;.*.;.,.,.~ Q Q + q 7 q h p a u.j j 6 C.^.A.XXaXS.yX^.^.XXhXC.u.l.V.`.[.[.F.~ ! ,.Y.).{.[.2.W 1 Y ! ",
";.*.! W W ! ! W ! ! ! X.;.2.L.2.;.;.,.;., = d f w ^ w w p p h 4 t.l.l.i.i.C.S.S.aXaXsXhXfX.Xl.k.I.U.L.,.;.;.2.2.2.}.#X).2.2.2.;.",
"X.X.X.X.! W Y 1 *.X.*.;.,.,.,.2.,.O.~ ;.` ) ) f ^ ' h h w w j p u.u.i.l.6.6 s l.i.l.A..X.XV.k.+.`.P.,.*.*.;.3.2.2.{.#X}._.L.3.X.",
"W ! *.*.X.! ! ! X.X.*.,.,.;.;.2.;.` T O.v.` f T ` ' ^ h f h k.k.a m.W.W./..XM.8 a ] k.+.=.v.v.N.).L.;.*.;.,.;.;.2.U._.P.2.3.2.3.",
"X.*.;.;.X.X.*.,.X.! X.;.,.,.,.N.O.=.+.=.v.f = ^ ^ ' f f f f +.v.^ R.R.J.&XSXjXx.x.=./ Q ! *.F.Y.P.L.2.2.2.3.*.*.;.*.X.X.X.*.2.P.",
";.,.2.,.*.O.*.;.;.X.! *.,.2.2.2.O.b.b.b.v.r = / T / e e : = Q ) = D } J.R.!.!.R.R.=.T ! ~ ! %.P.L.2.2.L.L.,.,.2.*.X.X.X.X.;.:.3.",
"*.;.,.2.2.,.;.;.,.;.*.! X.;.,.;.+.=.+.=.=.^ q e e T q d W d O.;.| =.R.oX|.J.x.R.R.-.` ,.,.X.%.F.L.2.2.L.2.2.L.Y.Y.P.,.*.X.:.2.2.",
",.;.;.,.2.2.;.*.;.L.L.X.! ;.;.o.O.) ) ) T ^ T = q e = Y W W ;.:.b.z.' ] ( c.n.n.J.b.b.N.v.;.3.I.P.,.,.L.L.,.,.F.[.[.P.*.X.2.P.L.",
"{.P.,.;.;.;.X.W ;.[.{.,.X.,.2.=.) _ z.' r T ` e S e * , d : Q Q w a a _ m.W.W.W.z.n.n.+.) o.:.I.P.2.2.Y.Y.,.X.W >.P.P.3.,.P.P.;.",
" X).P.;.! ;.,.1 ,.}.{.,.,.,.,.v.c.K./.p.0 | T e * * = , = = : w p 4 j j u.m.k.M.V.z.n.T.=.O.;.;.;.%.1.P._.G.;.X.*.2.o.o.`.{.3.X.",
"P.L.L.,.$.;.2.;.! Y.`.,.,.,.*.` p.~.@Xc.= 9 S e = = , q q q q w p 4 p h t.k.y.M.n.^ ' J.b.,.,.$.;.%.;.2.G.2.2.2.3._.3.;._._.;.;.",
"*.3.,.;.,.3.2.P.;.).Y.,.;.;.O.` ( c.K.c.D * D ; ; ; , e e e r r r = r r ( p.' c.J.' | b.,.>.>.1.L.,.;.;.;.;.:.N.N._.2.3.).U.;.*.",
";.3.$.$.F.F.3.Y.{.}.Y.;.*.;.,.=.W.W.K.oXJ.= ; O , , e T T D r T Y ; S S /  . .c.J.J.T.R.,.! #.1.P.N.v.:.=.=.:.,.I.L.*.2.}.{.,.X.",
";.2.;.*.2.,.3.{.}.[.L.O.O.,.L.=.x.n.n.!.x.* S ; , , e T ^ ^ ^ ( Y - c A G  .U p.p.K.!.!.T.$...$.:.v.v.N.N.b.b.b.,.;.$.L.}.[.D.$.",
"%.L.U.2.*.*.L. X2.;.;.;.;.b.N.` + 9 9 q q T ` = , , e T ( ( ( ( c - , ; G U U a.K.W.K.x.L.P.G.G.:.O.O.=.:.;.;.*.O.! <.Y.Q.T.D.D.",
";.L._.L.*.3.).{.X.*.P.Y.,.,.;.T / e e q S *.T O q , q D ^ ( ( ' d * ; 7 u t.e.a.(./.c.r O.I.].].2.O.Q W O.*.X.$.*.~ >.Y.U.,.,.D.",
"P.2.P.2.3.).{.2.*.2.}.}.L.;.*.e S X E =.~ Y * T q = q r ^ ( ( ' f : q 8 a u.u.a.a.~.M.r Q 2.2.2._.;.W W $.1.G.U.P.$.*.U.U.,.,.;.",
"P.2.;.,.F.U.U.U.P.L.I.[.Y.;.Y Y , ; , Y Y , < , = Y r e ^ _ ( _ g @ w h j t.t.M.(.K.K.e 1 1.&.1.H.&.&.1.1.&.H.>X X].F.,.3.2.:.O.",
"2.,.,.,.,.,.,.,.,.L.Y.[.L.~ Y Y Y , ; , , , e d = d f r ' y.] ^ g : g ) _ y._ n.W.K.R.` ! 1.&.&.&.#.&.H.H.4.4.H.]._._.L.2.3.3.:.",
"L.,.*.! ! ~ >.L.Y.Q.Y.,.Y ; S ` Y ; * * , , , e = e e f ' ' r q Q < , d Q ~ T =.b.-.L.<.$.>.#.#.V N ..F.H.1.#.V 4.H._.P.3.@.@.:.",
",.>.$.~ ~ *.,.L.L.L.-.S * * S ~ ; - - , S e = O : e q e f r e f O., < < 1 W , Y R R [ | | } E E ; < W ,.U.F.$...#.1.G.2.@.Q o.@.",
"~ [ <.D.T.T.-.} S S S S S S S ; A - ; Y E Y = O : : + + : : e =.,.S < * > N < 1 , q r ( ( J J i 8 8 a ' x.-.-.,.$.;.,.;.X.W W o.",
"~ [ *.D.T.L.-.[ R S S G E E S A G z ; S T Y e : : + X O = + e =.` 9 * X X * O : f ^ i e.6.6.7.6.5.y y s L ^ ' =.~ ~ ! R W Y N 1 ",
"[ [ R R [ } } } } E G E G G G / G A D G E T Q ) Q d : d Q d : / K 0 K q + 5 q _ V.~.C.Z.2Xd.1Xd.s.s.r.e.6.i K K G S c , , c , > ",
"S S S S S G E / 9 0 P p.u.i J u.P K ( y.z.z.v.v.B.:.@.3.T.O.d T ( y.K.z.^ ) k..XfXhXsXdXiXuXiXuXtX7Xh.j.f.e.6.i u 0 9 , c c N c ",
"F z c E D = 7 i y 6.6.7.s.d.q.s.C.C.l.a.l.y.k.V.'.'.+X$X#X~ Q = E T T ` v.E.@XzXSXhXS.j.g.d.2X2Xd.1X4XtXtXZ.j.Z.e.i t h ^ T d Y ",
"G F R [ [ D 0 y f.g.2X1X8X8X8X7Xr.i.e.t.t._ +.B.B.|.$X$X[.Y ! S - * * c ~ L.+X*XSXGXl.8.7.7.7.7.9.q.9.9.q.0.7.f.r.s t ^ ^ Y d Y ",
"r G { { C C G i 0.0XqXwX4Xs.y 8 H H A ; A c R D.F.}.$X$X{ $ z z R b x c ! >.[.$XMXJX5 t 6.6.6.7.w.<X<X,X2Xg.r.e.u.K D Y R c c B ",
"8 D b v Z C E t.0.wXpX3X9.5.0 I A A - - - c R D.Y.$X=X&X; O ; 9 0 8 8 0 ] M.OXfXLXLX6.7.j.0.s.2X5X5X0XwXuXh.e.u  .R b B B v v v ",
"7 ; l k M B T s 7.7X9Xg.7.y D  .0 K 0 0 a K y.W.V.@XfX^.6 6 5.7.q.q.q.,X2X8XdXcXPXcX5X6XqX6XrXeXeXeXwX8Xh.r.u A { b v v v x x x ",
"9 ; c c N , q 8 4 8.i.8.6.t + O 7 u t 8 a j u.~.OXkXxXaXf.Z.Z.tX8X6X6X5X0XwXpXvXvXpX6X5X6X6XrX5X3X3Xg.0.r.i 9 F n v v v x x l > ",
"R S , d d = O O O = O   + 8 w h 7 9 q 8 8 w ] V..XhXkXi.6.r.r.j.s.s.s.f.f.h.yXsXxXxXs.7.0.0.0.5.5.5.6 6 u 9 - z x v b c c S e e ",
"| S = : : X X # . $ $ X     @ 5 e Y S q q q f z.%XMXMXL i y t e.J J L L L L y.K.CXCX@ 8 i 5 4 e.u u 7 9 G S c R c c R T T T K a ",
"c.( e > # . . % $ - # X X O X o # . # > # X X.}.}.=XBX| A *  .9 0 = ; D e e =.E.AXZX` = =.T T 9 [ b b F { R S Y | ~ T T ( ' / D ",
"0 0 S ! C M % % * = = = , 2 3 % 3 & & % # > F.=XnXAXbXR c z D.} S S S S c , R ,.Q.ZX-XF.Y * Y c m v v b B c S T / ` | ( G 9 9 A ",
"D A c B V M % > f a a q > & & . &     X + Q $XFXHXFX*X, , * ; O 9 9 D D D T ` | |.ZXKXMXR.= = E B m B B c , Y ) f / | ~ S z n m ",
"| R x k x > > , 5 8 8 q , V M M # : g ) ) ) B.+XmXjXE.O e = = = * ; 9 = e T E T T.|.mXnX%X[.=.=.{ { R S e e T T f S S c b b m m ",
"m n l b ! ! T e e r D S R ! #.#.$.~ T Y T =.|.;X+X|.`   d Y ! ;.W ..W 1 W o.X.W Q Q `.{.+X-X{.X.E S S , e S Y Y T S c - $ $ l k ",
"l l $ c Y ! T Y E E E S S Y Y Y > b R E S ; * O ` ` e * Y 1 , W ! ! N N V X.X.W ! , ;.,.P.`.O.d D D e e Y ~ ~ R B R R c $ # - z ",
"z - * # - c N c # - z - 9 r ^ T z n F F I / E E     * T ~ W , 1 - $ $ - l z z z - X ; /  .G ; G D ^ E E R { { B v B R R S A D / ",
"; ; ; - > x x k k n F G r r h w A n l l z F G A T e T =.` T d , { F F F I I H H ; I U U  . .U H 0 / } R R B B v C B c S ` ( K u "
};
