/* XPM */
static char *_bf9d7ab3a134555863347ab19f5da18vo8CrMIAr8cYgRAy[] = {
/* columns rows colors chars-per-pixel */
"64 64 256 2 ",
"   c #0B0306",
".  c #1C0B04",
"X  c #1C0C0B",
"o  c #160806",
"O  c #19120A",
"+  c #180D14",
"@  c #1C1414",
"#  c #060211",
"$  c #250B05",
"%  c #2B140B",
"&  c #281609",
"*  c #341509",
"=  c #241413",
"-  c #2C1C14",
";  c #2B1C1A",
":  c #281816",
">  c #331C13",
",  c #331C1B",
"<  c #3A1A14",
"1  c #300B0C",
"2  c #2C2219",
"3  c #34231B",
"4  c #3B231C",
"5  c #392616",
"6  c #35280D",
"7  c #291C23",
"8  c #351C23",
"9  c #2D2427",
"0  c #342423",
"q  c #3B2423",
"w  c #3C2B24",
"e  c #3C2C2B",
"r  c #36292A",
"t  c #3B312A",
"y  c #3A2C33",
"u  c #3B3334",
"i  c #2F312E",
"p  c #1D1722",
"a  c #4C1C11",
"s  c #462818",
"d  c #562B19",
"f  c #493718",
"g  c #4E2C0E",
"h  c #67361B",
"j  c #4A1B28",
"k  c #432C25",
"l  c #432D2C",
"z  c #472A28",
"x  c #43332C",
"c  c #493326",
"v  c #563628",
"b  c #462D34",
"n  c #443433",
"m  c #4A3533",
"M  c #4C3A34",
"N  c #483839",
"B  c #533532",
"V  c #533A35",
"C  c #5B3D35",
"Z  c #543C3A",
"A  c #5B3E3A",
"S  c #573437",
"D  c #572D2A",
"F  c #663928",
"G  c #613E3A",
"H  c #633C34",
"J  c #672D2F",
"K  c #6A1439",
"L  c #584A15",
"P  c #574B10",
"I  c #695919",
"U  c #6A5313",
"Y  c #7A671C",
"T  c #796610",
"R  c #4C413B",
"E  c #54433C",
"W  c #5C413C",
"Q  c #5B4135",
"!  c #5A472C",
"~  c #66462B",
"^  c #76432A",
"/  c #64443B",
"(  c #6A453C",
")  c #6C493E",
"_  c #674435",
"`  c #734B3C",
"'  c #764938",
"]  c #6B5B2C",
"[  c #7A6924",
"{  c #766B30",
"}  c #302E41",
"|  c #493844",
" . c #573843",
".. c #503757",
"X. c #6C3848",
"o. c #761E52",
"O. c #584744",
"+. c #5B544B",
"@. c #5B5556",
"#. c #4E474E",
"$. c #6D4B43",
"%. c #674846",
"&. c #734C43",
"*. c #784C46",
"=. c #68544B",
"-. c #785449",
";. c #675856",
":. c #724D55",
">. c #726657",
",. c #6C5A63",
"<. c #6C6766",
"1. c #756868",
"2. c #7A746D",
"3. c #7B7676",
"4. c #756E73",
"5. c #3D4248",
"6. c #833A31",
"7. c #826C1A",
"8. c #88771B",
"9. c #907D1E",
"0. c #836D0A",
"q. c #895639",
"w. c #8D5030",
"e. c #8D7B24",
"r. c #887627",
"t. c #927D23",
"y. c #937D2A",
"u. c #887632",
"i. c #927E33",
"p. c #8C6A2D",
"a. c #A86838",
"s. c #975029",
"d. c #9A2B4E",
"f. c #855748",
"g. c #8F5350",
"h. c #99654A",
"j. c #8D6F51",
"k. c #A46847",
"l. c #B7764D",
"z. c #B87757",
"x. c #AC7050",
"c. c #857A77",
"v. c #8B736B",
"b. c #A87964",
"n. c #B97E64",
"m. c #975A59",
"M. c #C47952",
"N. c #C24F4D",
"B. c #98861E",
"V. c #928417",
"C. c #A4951D",
"Z. c #948225",
"A. c #95822A",
"S. c #99842A",
"D. c #9C8B2B",
"F. c #9B8A24",
"G. c #998834",
"H. c #988D32",
"J. c #A48B25",
"K. c #A89729",
"L. c #B29C2A",
"P. c #A89735",
"I. c #AF9733",
"U. c #ACA22A",
"Y. c #B5A62B",
"T. c #B7A836",
"R. c #BCB137",
"E. c #B1A735",
"W. c #AFA01F",
"Q. c #C2B338",
"!. c #8B8548",
"~. c #948B54",
"^. c #AB9948",
"/. c #A99754",
"(. c #B7A847",
"). c #B4A951",
"_. c #87837D",
"`. c #948679",
"'. c #9A946D",
"]. c #BA8469",
"[. c #A49B6F",
"{. c #AAA577",
"}. c #B6B072",
"|. c #C7845A",
" X c #D78B58",
".X c #C6B74D",
"XX c #C98867",
"oX c #D58D66",
"OX c #D09473",
"+X c #E39971",
"@X c #C5B76D",
"#X c #E8A478",
"$X c #E58F52",
"%X c #D3C755",
"&X c #D7C96F",
"*X c #EEE26D",
"=X c #797889",
"-X c #877C86",
";X c #7F8589",
":X c #8C8582",
">X c #8B8887",
",X c #938C8B",
"<X c #948887",
"1X c #97928C",
"2X c #8D8995",
"3X c #948C93",
"4X c #9B9493",
"5X c #9B9798",
"6X c #8C9293",
"7X c #A39C9B",
"8X c #A29999",
"9X c #AE9A86",
"0X c #B9B38A",
"qX c #A6A19E",
"wX c #AAA698",
"eX c #B9B499",
"rX c #B2A98E",
"tX c #9998A4",
"yX c #8A8EA2",
"uX c #A59CA5",
"iX c #A69FB2",
"pX c #97A4AD",
"aX c #ABA4A4",
"sX c #A8A6A5",
"dX c #B3ADAC",
"fX c #B0A7A8",
"gX c #B8B4AB",
"hX c #A7A6B4",
"jX c #BBB4B4",
"kX c #B9B4B6",
"lX c #B1AEB6",
"zX c #9AA199",
"xX c #C6BC84",
"cX c #C8BA92",
"vX c #C3BCA7",
"bX c #C3B9B9",
"nX c #EAB08A",
"mX c #CFC792",
"MX c #D8D3A6",
"NX c #CAC6B5",
"BX c #D0CBAF",
"VX c #E4DDAF",
"CX c #E6E1B6",
"ZX c #ECE393",
"AX c #B8B9C7",
"SX c #AFB7C8",
"DX c #95A0C0",
"FX c #C6B8C5",
"GX c #BCC4D1",
"HX c #C6C3CA",
"JX c #D3D1D1",
"KX c #F4EFD1",
"LX c #D7D6E7",
"PX c #E3DDF0",
"IX c #EFEDF9",
"UX c #E2DFD5",
/* pixels */
"| b r ; y | b b a X.g.d.d.%.O.X.#.=.v.:.#.5.N X.:.:. . .X.B c Z w 4 : W Q b r @.,X1XO.> ,XV x dXkXkXlXbXkXjXbXlXjXjXfX8XaXlXaXaX",
"b  .b j  . .j S J :.:.X.S ..| u M =.=.N b X.%.H #.y ..@.+.l B v m x $ $./ e t @.2.<X+.4 ,XZ m jXHXbXdXdXkXkXlXdXdXqXqX7X7X7XfX4X",
"| b y r b b N  .| 7 7 G G N #.;.v.O.O.N :.:.%.N #. .) :.#.t b S j.'.- ( ~ x i #.3.>XO.4 ,XV x jXkXkXjXdXjXlX7X4XqX,X,X4X1X7X8X:X",
"M M w - x M E ;. .N V ( C E N n y b | e e b r 9 0 8 < 8 = : Z S.e.0X!.~ %.t } @._.,XO.> ,XZ x dXkXdXjXjXlXfXaX4X_.;.;.#.+.#.+.N ",
"0 0 +   ; ; = = ; = & . . X X + O @ o = : > 8 : 2 w 8 4 3 s (.T.8.{.}.S.` y i #.<.:XO.% _.V x fXfXaXfXkXjXdXjXfXc.: @ 0 0 0 ; 0 ",
"o o     o X : = + @ = % > & & > - - - > s s k k k k x 4 4 y.%X@X&X'.0X).&XL 9 @.<.c.E > >XM l dXlXkXjXjXgX7XqX5X:X0 9 @.,.,.1.,.",
"c k o   4 c c c c d d k w 4 4 e > : ; 3 % 5 & 2 < > = 8 g G.@XE.xX[.'.0X.X(.e +.>X,X+.4 ,XZ x gXlXjXgXgXaX7X8X5Xc.r | kXHX4.bXFX",
"= @ # # + o X o + X o + o o o o o + + + @ X = + O @ O 6 { ~.}.!.0X!.v.'.[.[.!.R >X8X=.> _.Z x sXdXaXgXjXqXqX1X3.c.9 #.JX2X@.3.>X",
"$ @ = + ; : : ; > 3 , w 0 q q 3 e w k k B B m m q m t t =.=.`.rXxX{ MXj.}.0X'.@.>XsX+.- c.M m qX8XqXfXdXaXqX7X:X3.e y c.4.=XLXPX",
"W N l r Z W V Z / ) / %.W %.%.H V B / ( $.$./ %.k k $ % < $ $ v '.'.KX[.{.) . l 2.aX=.- 7XO.c 1X_.1X5XqXaX5X,X,Xc.2 N dX4XJXJXHX",
"$.M l 0 M / C / ' ` H C C / ( H C D H H ( -./ v < $ s C s s * 1 & j.KX[.* $ * * 4 ;.%.- <XE l jX<X<X4XaXaX7X1X:X4.9 N <X4.3X2X2X",
"$.V m w M / C ( ( ` / Q C ( ( _ / v _ H &.( c % $ % k B c z < < * $ 5 $ % * < s B b > - 1XO.z gXgXaXdXgXgXgXqX>X-Xr | uX3XFXPXPX",
"$.V l w Z $.C / _ ) ( / W %./ ) / D C / $.4 % . . 3 V O.+.E B s $ $ o $ $ < b B V M 5 & 3.+.4 aXfXjXjXdXlXfX5X4X2.r N c.,.,.hXAX",
"&.Z l e Z $.C ( H &.$./ G $.( ( $.C / / ( % : : $ B W ;.v.=.d a g a d g a * B =.>.;.Q $ n O.4 aXqXqXdXdXaXqX4X1X>X9 N UXlX,.-XtX",
"$.M b e M $.V ( ( *.&.G G &.( ( $.C ( ( V : = o % z D / $.v h s.s.l.k.a.s.6.h F -.%.c s x M 4 5XdX7XjXjXfXdXaX,X3.y y -X8X;.-X,X",
"$.M b l V &.C ( ( -.$.V V $.) ( -.v ( $.k % = o > 5 v D s h a.l.|. X+X XM.l.s.h v C D < l E - sXfXaXdXfXaXlX7X>X2.N n l E E R R ",
"&.V l e V &.C $.f.f.$.W C &.&.( *.C ` H ; @ O o - 3 4 s a a.l.|.oXOXOXOXoXM.l.s.a c k < 3 x w 7XfXqXqXqX7XaX8X:X1.t 0 r t w w w ",
"&.V b e V &.Q $.f.f.$.W C -.&.( *.C ) _ = o o o $ % % * ^ k.l.XXOXOXOXOXOX|.M.a.F < 4 > ; 3 3 aXaX8X8X8X8X7X1X_.1.2 @ u n O.O.O.",
"&.Z b y Z &./ &.f.g.$.W / -.*.&.-.C $.&.0 X X + . % $ v h.k.z.z.].].OX].XXXXz.x.h.a * % @ x w 8XdXaXaX7X7X7X4X<X2.0 9 4.4Xc.<X4X",
"*.E b y Z &./ &.*.g.&.W / -.*.*.-.C $.&.B . & o   . > v v ` f.b.b.n.].n.].b.j.h.w.F * . y R > 7XdXsXfXaXaX7X8X1X2.r y HXHX3.3XkX",
"*.E b e Z *.( $.` f.$.A G -.*.*.f.C ) ' &.$ 4 $ $ s d D F v H _ j.b.].b.h.^ F F h h a . ;.E > 5X7X5XaXaXfX7X4X1Xc.r 9 sX3.#.>XhX",
"&.E l y Z &.( ) *.-.%.A A -.*.&.f.Q ) ' f.s v < s v v v v V s v ' b.XXh.F v ( *.f.^ ^ s ;.O.4 3X4X4XaXaXdX7X4X1X_.t u >X3.tXPXIX",
") E b n E &.( ( &.-.%.A A -.&.&.f./ $.' f.v d s k C D z X X , D w.XX+Xa.F < = : D ^ ^ v 2.=.* >X,X3XuXaXfX7X4X,X_.u 9 5X>XlXhXlX",
"( E b n E $./ ( ` &.%.W C &.&.&.f.W %.` f.` g s g ' f.-.%.B f.h.q.oX#Xl.h.` z G g.h.h s c.%.5 2X>X<X7X8XaX8X4X,Xc.r 9 4X-XuXiXuX",
") W l m A $./ / *.-.( W Q $.$.` -./ $.' f.j.s a f ` j.b.].XXXXl.z.OX#XoXoXoXXXXXOXx.F < 2.=., c.,X4XaX7X8X4X1X3Xc.r r ,X-XtXLXIX",
"( W l m A $./ / &.*.( W C $.( &.-./ $.' f.( s d s _ f.x.n.XXXX|.XXOXnX#XoX+XoXOXoXh.d > c.O., c.>X4X8X7X5X4X4X:Xc.w 0 8X-X#.-XiX",
"/ W e n A $./ G ) ) ( W C $._ *.f./ %.` f.4 % c v F ' g.z.].n.z.b.XXnX+XXX+X+XoXz.q.D > :XO.q c.,X3X4XqX7X,X3._.:X9 y bXJX3.2XdX",
"( W e n A $./ G ) ) / ( W ( _ -.-.( $.( &.. . < s v _ q.k.x.h.f.' d d g.z.XXoXM.h.F * . #.M = <.7XsX8X1X5X:X1.>X>Xu 9 #.<.#.@.<.",
"/ W e m A $./ A / $.W $.( / / *.-.( ( ) Q   X & $ c _ ' q.h.f.g.f.' F h.z.l.l.k.&.* $ = =.%.% M aX7X,X8X8X2.@.:X`.Z l e m Z m m ",
"/ O.e m W ) / A / $.C =.$.H / &.-./ ( ` V   X % $ % v _ _ f.f._ J J J ' h.x.h.f.> % . : <X<Xk M :X:X<X4X<X<X<.1.,XO.0 e n t e x ",
"/ O.l M W ( C B Q / C =.$./ H $.-./ ( ` B   X * % o 5 Q ~ ' ' a j J J d h h.f.D . < . o 0 x = ; e e u <X:X,X1.;.4X_.3._.>X>X:X>X",
"G O.l Z W / V m C W W =.$./ C $.-.) &.( m     $ & . $ s v _ ' f.g.g.g.m.h.q.~ $ $ * o   v.c.,X<X`.c.: 8X,X3.:X2.7X7X7X5XuXuX5XsX",
"B O.0 x O.B z c m B B / C Z B V / A / c c 3 > $ & $ o < g v ' ' q.^ w.f.f.~ -   $ $ $ : 5XfX=X;.;.=.$ E O.V Z R O.=.c.5X4X8XuXqX",
"> :   X = : 0 9 ; 2 3 - ; ; = 3 = 7 : 2 j d.l.f k q l a a s v _ q.-.f.' ~ d , > U w.< w 8X4Xk > =.=.%.=.O.=.%.E O.= 1.sX6X8XaX5X",
"k e   + R r @ } | y l b n l e k x k w t o.d.d.B q #.Q h d a a v v _ F F d F m q 6.N.d.8 :X6Xw Z sX4X5X5X5XsX:X<.v., 1.5X4X4X8XsX",
"; 7   + ; @ p #.u i @ ; = @ = % O ; + O *.d.o.; 9 =X' w.' ^ d s s s d v ^ ' 2.b K o.g.< q z ; < x q w _.c.=.4 3 4 < z b z z ;.fX",
"p @ O X o u 9 7 7 #.e , 0 w 4 k c z N 2 f v S 4 <.yXf.s.h.q.F F h h ^ q.a.q.<X,.s S *.;.;.;.e 5 1.1.: 3.3XO., 1.>X`.c.<X1.= O.zX",
"#.r 2 e y @.e =.0 O.=.A %.-.( *.-.` Q = X $.=.1.yXyXb.a.k.k.q.w.^ w.w.h.a.h._.6Xw.g   l =.#.- r `.1.. w M 4 < E Z m =.:Xc.> z O.",
"r 9 ; r 7 #.O.O.u n %.Q C ) / &.-.W ; + e Q <.iXhX2Xc.x.l.x.a.q.w.w.k.x.l.x.>XhX<Xd 1 = > V G :.>Xc.=.M M z , e Z , n >Xc.: q =.",
"O u 7 b 7 7 u e 0 Z %.( H ( _ -. .% % 1 _ ,.2XdXSXlX>Xj.M.|.l.h.a.k.l.].M.x.2XSXSX`.s + = %.3.2.4.3.`.2.1.V 3 #.<.n n ,X;.% m _.",
"k m ; n x w , q G %.! ~ X.$.~ A ! , N 1.rXgX=XHXAXtXpXv.M. Xl.l.l.l.].|.M.v.pX7XAXhXwX1X+.5 w c s 4 : 4 4 : 3 u R N : q , . N <.",
"x E 0 M m M x Z &._ W %.v $.v `.}.!.rXNXBXJX3.tXJXlXHX5Xv.|. XM.z.]. X Xj.,XHXAXLX=XwXUXNXrXj.).1X;.& ;.1.;.@.#.<.c.c.v.1.; u 3.",
"x O.r M m V B %.' -.A %.%.c 9XKXxX/.{.eXNXJXNX1.lXJXlXHX5Xb.oXoXXX X$Xz.3XGXkXGXtX_.UXBXvXvX/.P.UXv.. Z E n R x R +.=.O.E & w O.",
"V O.q Z V W B / ' -.A Z B >.KXKXCX~.[.eXbXNXUXNX<.hXAXkXJXuX9X#X#X#XOX<XAXHXkXhX4.BXNXBXgXeX~.}.KXMX- $ & $ $ & % $ $ $ $ $ * $ ",
"W Z q Z W / C $.*.-.%.W I !.9XCXKX0X~.{.eXNXbXJXgX;XpXhXlXAXAXrXOXOX7XSXAXkXpX>XfXJXNXvXeX9X~.mXKXmXj.* * * > & * * & % - > % % ",
"A Z 8 Z V / v &.*.-.A ~ r.A.~.'.VXCX~.!.{.eXeXvXNXwX;XtXuXLXPXhX<XbXLXPXAX2X2X,XNXvXvXrX{.~.~.CXMX~.^.[ . O . $ . O . o O o   O ",
"A Z q Z V / v $._ $.~ r.i.9.Z.!.0XKXVX}.[.'.{.rXeXvX1XyXLXJXhXDXLXIXIXPXJXAX3XgXeXrX{.[.'.}.VXKX{.G.9.P.] 2 c k 2 2 3 2 - - 2 = ",
"C B q M Z / v _ G ~ [ e.e.y.Z.Z.!.[.mXKXKXCXBXvXrXwXrX1XpX=X2XlXJXLXSXSXSX5X9XwXrXeXBXBXKXKXmX[.G.S.B.y.D.I E c 5 s k c 5 5 5 5 ",
"B V 8 N V ~ D ( v ] e.y.e.A.S.Z.8.r.7.^.xXxXMXUXKXKXCX0XwXkXgXgXNXNXgXgXNXNXUXUXKXUXVXmX@X).r.Y 8.G.Z.S.B.e.Z f 6 5 x k 5 3 3 & ",
"V B 0 | B C B %.! u.e.e.e.S.S.A.r.0.t.E.C.C.T.U.(.@XBXUXMXxXmXmXMXVXVXVXVXVXZXmX}.(.U.Y.C.U.F.9.8.A.S.S.B.D.{ 4 s k 5 k 5 3 3 & ",
"B m 8 N c C B C [ ^.D.A.t.S.A.S.p.8.E.B.L.Y.T.Y.U.}.KX0Xr.t.r.Z.A.9.e.9.8.K.T.U.L.T.Y.Y.Y.K.P.e.8.t.i.S.Z.T.K.s c f 5 5 - 3 - - ",
"z m , n z O.b v r.E.K.t.t.S.A.S.p.8.J.K.I.T.Q.Y.xXKXMXH.e.y.G.A.A.t.A.A.t.J.T.W.K.L.T.Q.E.K.I.9.r.e.S.F.S.R.R.I 4 k s 5 - - & - ",
"k M 8 m k  .k ~ D.K.K.t.Z.S.A.Z.8.J.Y.J.L.Y.E.MXIXMX^.9.7.8.9.u.r.r.7.r.8.9.L.Y.K.E.L.L.Y.K.K.K.u.e.Z.Z.J.R.R.D.5 z s s 0 & 5 - ",
"k m 7 m k m s u.P.K.E.S.Z.Z.A.y.{ y.I.L.C.).VXKXmXP.J.J.t.8.8.t.8.9.8.e.e.V.K.T.R.U.Y.T.K.K.I.B.u.y.Z.Z.J.T.T.Q.L 4 k 5 3 3 - - ",
"w n ; n k k v H.P.K.I.S.t.Z.A.A.Y 7.J.L.).KXKX@XU.L.J.e.9.Z.e.9.e.8.y.A.y.A.Z.D.Y.Y.L.Y.L.Y.K.J.7.y.Z.y.D.T.T.Q.S.5 k 6 > w & 2 ",
"w m 7 n k z ] K.P.I.I.G.t.9.t.e.[ I r./.KXKX}.I.L.D.V.Z.u.e.Z.r.P.V.D.Z.e.S.9.F.A.P.L.C.T.J.H.r.Y r.y.y.Z.R.Y.Y.R.L , 6 6 , 2 - ",
"w x ; n 4 z u.D.F.U.D.8.A.i.t.J.I I { KXCX).K.F.D.e.e.e.9.B.K.E.T.R.Y.I.J.F.Z.i.Z.Z.Z.e.Z.e.7.Y Y r.e.i.V.D.R.K.Y.[ 8 5 6 > 3 5 ",
"q Z 8 m 4 ] i.8.K.P.S.9.r.8.D.P.L L }.MXu.Z.A.Z.Z.Z.A.H.P.K.R.T.T.Y.R.R..XK.V.D.Z.Z.S.Z.Z.e.r.Y 7.t.r.e.r.B.E.E.B.%XL : 6 > ; - ",
"l m 7 M > /.^.P.A.u.r.r.u.8.F.V.L ] BX~.V.9.A.Z.S.A.t.B.E.R.R.T.Y.R.U.U.R.R.R.Z.Z.Z.S.Z.Z.Z.e.7.Y e.7.8.i.8.9.P..X.XP.& 3 , 2 - ",
"3 n r n ! ^.i..Xu.E.Y Y Y 7.e.0.P `.{.r.D.S.F.D.S.S.D.T.L.Q.U.Y.R.Q.R.(.U.R.T.J.S.A.S.S.Z.Z.A.r.Y [ r.Y T T .X9.Q.I.%Xf , - - = ",
"O 7 O + >.!.^.y.p.%X(.%X(.A.r.[ L <X{ [ r.e.e.e.y.A.9.F..XY.T.R.R.Q.Y.T.U.Y.T.(.Z.t.y.t.e.e.e.Y I I I i.).%X%XP.(.&XG.] & & 7 - ",
"  #     ] I }.&X&X^.%X.X.X%X.Xi.f =.I I [ 8.u.r.r.e.Z.E.E.L.K.K.Y.Q.Y.U.L.Y.T.B.e.e.r.r.r.r.[ [ L H.^..X^.*XE.*XZX/.~.mXk & = = ",
"0 +   +.eX'.j./.*XP.*X[ G.(..X[ ] c L I P I [ [ [ Y Y e.P.I.D.P.K.J.K.D.V.K.D.A.[ [ [ [ Y I I I g H.G.(.P &X@X.X/.cXKXCXE . > = ",
"s %   +.wXNXNX[.j.G.@X] )./..X).).Q & 6 f f P P P P U U 7.7.8.T 7.8.T 7.Y r.U U P U P P P P g f { /.j./.[ H./.'.CXKXeX/ 5 b 6 0 "
};
