/* XPM */
static char *_98cd258730749ceed51e0ec4aabd19b0kRq1dONWcAVOogH[] = {
/* columns rows colors chars-per-pixel */
"64 64 249 2 ",
"   c #010300",
".  c #0B0501",
"X  c #0D0B00",
"o  c #060B00",
"O  c #150602",
"+  c #130B02",
"@  c #1C0C04",
"#  c #150B0A",
"$  c #1C0D0A",
"%  c #1B0704",
"&  c #051300",
"*  c #0B1401",
"=  c #041901",
"-  c #0C1B02",
";  c #0B1C09",
":  c #131404",
">  c #1C1303",
",  c #141D02",
"<  c #1C1C03",
"1  c #1C120A",
"2  c #131B0B",
"3  c #1B1B0B",
"4  c #17130A",
"5  c #1C1A10",
"6  c #260600",
"7  c #2B0600",
"8  c #240C03",
"9  c #2C0B02",
"0  c #230E0A",
"q  c #290C08",
"w  c #350501",
"e  c #3A0502",
"r  c #340C03",
"t  c #3B0C04",
"y  c #330D09",
"u  c #3C0C0A",
"i  c #241403",
"p  c #2D1105",
"a  c #2B1303",
"s  c #221805",
"d  c #241C04",
"f  c #2B1B05",
"g  c #24130B",
"h  c #2B140B",
"j  c #241C0B",
"k  c #2C1C0B",
"l  c #331403",
"z  c #3B1303",
"x  c #341905",
"c  c #3C1A05",
"v  c #33140A",
"b  c #3B140A",
"n  c #331B0C",
"m  c #3B1B0A",
"M  c #2C1611",
"N  c #241C11",
"B  c #2D1B13",
"V  c #281916",
"C  c #331C14",
"Z  c #3B1E13",
"A  c #371D1A",
"S  c #0D2402",
"D  c #0D2A01",
"F  c #092604",
"G  c #132402",
"H  c #1B2403",
"J  c #142B03",
"K  c #1B2B05",
"L  c #13230B",
"P  c #1C240A",
"I  c #142D09",
"U  c #1C2C0A",
"Y  c #0C3200",
"T  c #143404",
"R  c #193306",
"E  c #133A04",
"W  c #1A3A07",
"Q  c #153109",
"!  c #1C330B",
"~  c #1B3C0B",
"^  c #173C0A",
"/  c #1B2313",
"(  c #1C2C12",
")  c #152812",
"_  c #1C3412",
"`  c #1B3C11",
"'  c #232305",
"]  c #292306",
"[  c #212B07",
"{  c #23240A",
"}  c #2B230B",
"|  c #232C0B",
" . c #2C2A0C",
".. c #32220C",
"X. c #3D220C",
"o. c #322B0E",
"O. c #23330D",
"+. c #233B0E",
"@. c #2A350F",
"#. c #242312",
"$. c #2C2312",
"%. c #222B11",
"&. c #2D2C13",
"*. c #28281B",
"=. c #342313",
"-. c #3B2214",
";. c #332C12",
":. c #3C2B15",
">. c #3B241B",
",. c #342B1D",
"<. c #3C2C1D",
"1. c #37261C",
"2. c #233412",
"3. c #2B3312",
"4. c #243B12",
"5. c #2B3D14",
"6. c #26371A",
"7. c #383419",
"8. c #2D2920",
"9. c #332B21",
"0. c #3D2B23",
"q. c #3C2721",
"w. c #373526",
"e. c #2C3321",
"r. c #420D03",
"t. c #430B0A",
"y. c #480609",
"u. c #421404",
"i. c #4A1402",
"p. c #431A05",
"a. c #4C1B05",
"s. c #441509",
"d. c #431B0A",
"f. c #4B1B0A",
"g. c #4A1609",
"h. c #531602",
"j. c #541B05",
"k. c #5C1C05",
"l. c #541D09",
"z. c #5A1E0A",
"x. c #551708",
"c. c #4C0D12",
"v. c #540D13",
"b. c #451911",
"n. c #570A10",
"m. c #631F09",
"M. c #671E07",
"N. c #64171D",
"B. c #4C220D",
"V. c #45230B",
"C. c #5B2105",
"Z. c #53200C",
"A. c #5D220D",
"S. c #522005",
"D. c #442414",
"F. c #4C2312",
"G. c #43241A",
"H. c #4A2519",
"J. c #442B1D",
"K. c #4A2A1C",
"L. c #482A16",
"P. c #532414",
"I. c #522B1B",
"U. c #5A2A17",
"Y. c #44321E",
"T. c #4C301B",
"R. c #5D301C",
"E. c #54331F",
"W. c #63220C",
"Q. c #6A210C",
"!. c #672509",
"~. c #632513",
"^. c #62341E",
"/. c #69351A",
"(. c #73381B",
"). c #442B24",
"_. c #4D2E22",
"`. c #482F28",
"'. c #562E24",
"]. c #453324",
"[. c #4D3223",
"{. c #43352A",
"}. c #4B332A",
"|. c #4C3A2A",
" X c #4B3C25",
".X c #543424",
"XX c #5A3524",
"oX c #59362A",
"OX c #523C2C",
"+X c #5C3B2B",
"@X c #553629",
"#X c #423B31",
"$X c #653A25",
"%X c #633D2B",
"&X c #683926",
"*X c #733C27",
"=X c #653E30",
"-X c #693F33",
";X c #154203",
":X c #1B440B",
">X c #1C4709",
",X c #1D4110",
"<X c #224C0F",
"1X c #22440D",
"2X c #244313",
"3X c #224C12",
"4X c #2A4718",
"5X c #275215",
"6X c #2A5417",
"7X c #32601F",
"8X c #394526",
"9X c #52452C",
"0X c #474335",
"qX c #5A4532",
"wX c #4A4A35",
"eX c #65412E",
"rX c #6C412D",
"tX c #74432C",
"yX c #7A462C",
"uX c #7A482F",
"iX c #6C4533",
"pX c #6B4636",
"aX c #734634",
"sX c #734A34",
"dX c #7A4C35",
"fX c #734C3B",
"gX c #7B4E3B",
"hX c #7C4530",
"jX c #7C523D",
"kX c #74513D",
"lX c #7D5443",
"zX c #795442",
"xX c #814D36",
"cX c #894B32",
"vX c #83533B",
"bX c #88553C",
"nX c #915738",
"mX c #854426",
"MX c #97613F",
"NX c #825643",
"BX c #855944",
"VX c #8B5B44",
"CX c #865C49",
"ZX c #925C42",
"AX c #936247",
"SX c #97664D",
"DX c #8A6252",
"FX c #966750",
"GX c #AD8470",
/* pixels */
"t.t.t.t.u u y y r r w w r r y p v b b b b b b b b b v p p 9 9 9 9 l p p 9 9 r r w r l a a a i i p p p i i i i i i i s s s < < j ",
"c.y.y.t.t.u u w w r u w w w 9 9 9 6 6 6 7 7 9 9 9 6 6 6 6 6 9 9 6 6 6 9 r 9 r w t r l 9 9 9 9 9 p p p a i g i i i i i i s > < s ",
"N.N.v.v.c.c.t.u u t.t.e e u w 7 7 7 6 6 6 9 9 9 9 6 6 9 6 9 9 9 9 9 9 9 9 9 r t t t l l l r r l r r l p p p p h a i i i i i s s ",
"n.n.y.y.c.c.c.b.u t t.t.t.t r r 9 9 9 9 9 9 9 9 6 9 9 9 y 9 9 9 6 9 q 6 9 9 r r t t r r r r w r l l l l p p p p f f h h k k k f ",
"y.y.e e e w 7 7 7 w w e w 7 6 6 q q q 9 9 9 6 9 9 9 6 6 9 9 7 r r 9 9 6 9 9 9 r r r 9 9 r r r z r r r 9 9 a a a a a a i i i i i ",
"t.e e e u r w 7 7 r t u w r r q q q q 6 9 9 9 9 9 9 9 9 r r r r r r l r 9 r l z z r r r r r t z r r l l v l a a a a a a a a i i ",
"e e w w w w w w w w w e u r b v q 0 8 q 9 9 r r r r b r r t z t t r s.u.z p.p.u.s.d.s.b b t t r z c m d.m m x l l l v x x x x x ",
"e u u u u u u b b e w t u 7 y A M g 0 8 9 r r r t w t w w I.lXDXR.u.z u.u.i.i.i.f.f.g.p.u.u.z u.z c p.p.c x x x c c x m m c x c ",
"t t u u u t t u t.t t u t 9 A C g N N M n b z z r.t t e P.gXCXGXCXp.a.l.x.j.i.x.x.j.i.u.u.p.f.u.z z c c l c c x x x x c l l x l ",
"t u t u s.s.t.u.t r.t.u b v C g + 4 g h n b u.g.i.g.u.u.R.$XsXlX%Xd.u.Z.z.h.W.m.k.k.k.j.l.S.a.u.a.a.a.p.u.p.c c c c c c m c c x ",
"t t t t r.r.r.r.r.g.r.z b C h @ 4 4 g 8 v d.g.i.i.r.i.l.U.B.B.I.c t P.z.k.Q.M.Q.Q.M.Q.m.k.C.j.C.A.A.A.x.a.f.a.p.f.p.p.d.V.d.m m ",
"t r.t r.r.r.r.r.r.r.u b b n > 4 1 4 @ p b u.i.x.x.z.x.l.^.XXI.H.d.d.U.U.W.Q.Q.M.M.M.M.M.!.!.k.C.W.A.A.l.l.S.Z.f.a.p.p.d.d.c c m ",
"r.r.r.r.r.r.t u.u.u.z b b h @ > 4 g 8 v d.g.x.x.x.z.U.P.P.eXDXpX+XD.P.P.A.W.k.k.W.W.m.m.W.C.C.j.j.z.l.S.l.B.Z.B.p.p.p.d.c x m V.",
"g.g.g.s.s.g.u.z z u.z b b p 8 g 0 g p b u.i.h.h.h.i.x.P.P.I..XG.n b d.i.i.i.h.h.j.z.l.z.l.j.j.i.a.a.a.a.a.p.d.d.d.d.p.d.m m V.X.",
"u.r.r.u.s.d.u.z z z z s.b 9 p h h 9 v m p.i.j.(.*X~.&X&X'.H.v G.b D.XXP.U./.A.a.i.u.i.f.i.u.p.u.z p.p.p.p.c c c p.c p.c c c c x ",
"s.g.u.z z z z z z z z b b 9 v Z n l m u.P.tXhXbXbXxXvXaX-XH.9 9 r .XiXdXbXvXxXhXR.p.z u.z c c c c c c c x x x x c c d.d.z c c c ",
"s.s.s.u.u.g.s.p.d.d.H.l 9 r m l c z z d.iX$XR.yX*XhX*X&XaXpXG.v XXeX%XsXdXuXuXdXgXR.d.d.x x c x x c x l x c x m l x c c c c c c ",
"u z s.u.u.u.r.u.b.fX_.6 9 m b d.c c z XXiXI.B.sXtX&XR.U.sXzX'.=XfXrXU.^.&X&XdXgXrX%XD.x x l a l l x l l l x x m x x m m m m c c ",
"s.s.s.u.u.z t f.'.pX[.6 n Z v b z eXiX%X%XXXF.sXVXdX&X^.rX$XF.XX%X$XR.rXvXjXlXfXeX.Xm a v x v v x x x l l l x x l l l l x x x l ",
"r r b d.z z F.=XoXG.[.>.G.C -.Z oXzXXXK.H.Z x XXNX&XtXrXdXdX$X&XgXyXrX$XaXfXiXeX@X[.-.n v x v v v x m m x x x l x l l a a l x f ",
"b l b m b d.XXeXK.-.>.q.M g A A b G.J.-.v p 9 G.aXiXvXvXbXbXyXxXVXxXdX$XXXXX[.J.G.J.-.C n v v v l l x x l v x l l l a a a i i i ",
"m v l v m K.oX_.G.>.M M % @ @ 8 g h q h g % 8 p +XBXSXAXAXvXyXxXZXbXBXgXK.b -.=.-.A -.>.n n b Z v l x v l x m x x x f a i i i i ",
"x X.m l v Z G.Z -.C M g @ 0 % $ $ $ $ % $ g % p %XCXFXSXFXAXyXnXSXFXDXlX_.p g g h g >.}.-.p v p v x x x x n X.m x l a a i i > < ",
"x -.x l v n -.G.C h @ @ g $ $ $ # # # 1 # + % i oXlXNXBXvXyX/.uXbXVXkXeXJ.h O g h C >.[._.-.v a k f x x x n x x x l f f k j d d ",
"n x a v v f h n g M h g 1 1 g $ # # # # $ @ @ p H.eXNXjXsXrX$XsXjXsXeXK.n g @ % h C >.G.K..XH.n k k f a x x x x f f ..f d i j j ",
"f a f f n n h i k h B g g N 1 1 # # $ @ @ @ i h G.XXpXpX+XK.K.oX+X.X[.-.g g 0 % g C n v K.+XoXn n n n a f x x x x f a i k k k s ",
"x f n n n n k @ k k h h h g g 1 1 @ @ @ @ s k n v b.K.K.Z p h v n n C h g B B g 8 g n K.oX.XoXG.l a f f a f f a a f f f f f d d ",
"n f n k h k i k k k k k h i g 1 > @ g k k } ..n p v v v h C B M h p g 8 g C =.h 8 p -.[..XH..XL.v x f a n f i f i f f f k f i i ",
"f i f h h i > k k k k f k k g s h k n =.=.} } -.v v n v >.}.).q.>.h g g 8 k k k h a n -.K..X%XXXD.c X.X.f a f i i k f d f f d i ",
"f f k h k k i k } ....f f n k k n n f f k d d =.n Z G.Z >.}.).).>.M g k h n ......i a v H.XX=X=XI.l a a a f k i i d d s f f k k ",
"k k k k k k d d d f a a f f k k k k f k } } } } =.-..X_.G.[..XG.).A h n a f f f n i a 9 v K.%XfXrXE.E.D.a 8 f d k d s f k ..k f ",
"d s d } k d j d d d f f f ..k } ..f f d > s k k =.-.@X@XG._.oXG.).>.M h a ....o.:.;...x a l H.=XjXNXBXkXqX-.i d } $.$.,.k f i i ",
"d f f d d ] d d ] d d d f k k k ..f d d } s i :.OX=.-.-.n J..XK.).A g 0 g =.;.] o. .f ..f i v +XdXvXBXNXfX.Xk > j ,.{.1.f } $.$.",
"] ] ] d d ] ] ] d s j } k } $.k f f ..} d d ..:.OX[.:.>.-.n v Z A C M h h k ..} ] d < d f f a T.sXjXvXgX%XG.n <.w.,.g g B k w.,.",
"] ] d d d } d d } ] d s j } s > f f d ] } } qXqXOXOX|.].J.-.-.`.).>.A C h k ..=.} } j d d f i L.eXsXsX%X.X[.=.j j #.1 1.{.> j { ",
"{ ' { ] ] } d d d d ] ] d ]  .] i ..] d f ..Y.OXJ.<.].B =.].`.).>.M q h h k n } } } } } } } s ..X.G.+XoX@XJ.$.> j N + @ B s s #.",
"{ { P { d { ] } f } ] d ] ] ] ] } o.] ] d |.].Y.].}.0.g M 0.>.>.M 0 0 h M k k } } ] } o.} {  .;.=.C }.}.>.C $.{ : + s $.} } d ' ",
"P P P P < { d ] o.} ] ]  .;. .} ] ] ] ] ] Y.qXOX].|.M g @ g 0 0 % 0 0 M C =.$.} &.| ' | H < &.&.V @ M q.B 1 + X : j 7.;.} d ] ] ",
"H H P { P { d ] ] } ] '  . . . .;. .o.}  X].J.|.|.1.@ 1 @ @ g @ g g h h M B k j | { K P P 3 3 4 + $ g g + > > < { { } ]  .d ' ' ",
"H H H P < ' < < H < < < H H ' | ]  .d 7.9X X|.|.{.B @ + + + $.j @ g g g h h h j d { %.P P 3 4 4 4 + + 1 $.j < {  .&. .] ] '  .' ",
"' ' H ' H ' ' H ' H , < < H H H , ' s 7.9X X|.|.B @ 1 + + N $.> > i g h v v v n h k $.$.j 4 4 X > j $.} ] d ] < ] } { '  .' < { ",
"' | ' H H H H | K K [ 3.| H H [ { { d 7. X|.OX].@ + + + X #.&.< > @ h v b d.P.F.d.v v h > + 3 { } ;.;.o.] ] ' ' ' ' ' {  .{ < { ",
"H 3.3.[ | | [ K O.| | 3.H H { P P < d <.|.|.|.B O $ + + X { &.{ > g 8 6 ^./.r.i.i.Z.b.v f d ' |  . .} o.] ' ' H ' | ' |  .3.U [ ",
"| 3.3.[ H , H [ H H H U U [ | H P P d ..:.).}.B g 1 + X : { 3.7.< > a F.AX(.!.mXcXtXF.l f ] ' | ' ' < ' ' ' ' H H ' H H G K K K ",
"[ @.5.O.O.O.O.H 3.| K [ K H H | H  .} k =.-.q.M g + + . 3 %.K | < > 8 eXMXMXnX(./.B.c f s d ' H ' ' ' ' ' H | | H H K U G G J U ",
"U G G H K K K K | O.| | | H K [ [ [ } 7.Y.n h 0 O . # X #.3.H H < > i l p.S.a.u.r 9 f } ' < ' H H < H ' [ H [ [ K O.2.O.O.O.O.G ",
"J ! ! K G H H [ H ' ' H H K | H K |  .:.:.-.h % $ O # X P 3.@.@.d s i 8 9 l n n h i > { 3.P H K ' H H H K H K K O.G G ! 4.J I J ",
"J ! U ! ! U G G H H H H H [ 3.U K K H o...h M g $ # + X 3 | U H } @ g g 0 g B V N j < { | | [ K [ H H O.U G G K U G G J ! J ! 2.",
"D ~ ! +.+.O.K O.5.@.K G G H O.U U G 3.o.k C C V 1 + . X , K G H < > i g g @ $ g j < P 3.| O.H H [ @.U U G 2.! S S J ! ! J G G G ",
"! R R 4.+.J ! +.5.O.O.O.U K G J J G H  .=.>.B N + + X * , K G H < > > @ g % % O + : P U [ J K | 5.@.K G I K ! Q ! J ! J S - G J ",
"5.R +.4.K J ! ! ! R K ! @.O.K J I I K { k g $ + X * : , , L K H | | , X + $ $ . X 2 ( J J K K J U J J G K S U 2.U S G J U U ! 2.",
"J J J J ! ! 4.J J J S J K J J G J _ U < =.g + + , P P U ( U U U O.5.2.P X + # # 5 / ( U ! 4.O.K K J ! 4.K G K K G H H G H ! U G ",
"+.+.4.R ! ! J J J J S J R R J ! Q Q U P ,.9.N : P _ U U _ I J J J ! 2.6.P 4 1 A 8.3 %.U O.! +.O.O.U O.2.G G P H G , , , G G S H ",
"W 4X2X! ! R ! 4.! J R J R ! J I Q ! K H *.w.3 L _ 4.I J Q J I R +.! ! H L 3 V 0.q.j #.| J J J J J K K H H G P P , H P , U 2.2.U ",
"W ~ ~ T T W T R T J J J R ! J J Q J U P : 5 2 / U ! J J D D I K S J 4.I K P j 1.<.$.] | G K J G H [ K H K H H H P H U G O.O.U H ",
"~ ~ 2X2XW ~ :X~ W 1XR 2X+.J ! ` ` ! 6.%.X     L U R R R J J I S K J ! ! | | j <.{.$.< H H K K H H G , H H | | U U K G G G G G K ",
"T R T Y W ~ :X7X:X:X:XE E E ` ~ T Q _ 2.#.4 : %.I J T D ! Q I J H K I J U | j $.,.#.#.P U 6.2.K H H K U U 2.U G G G G G G G K G ",
"J W +.~ ~ E :X3X:X;X:X<X:XE E D Y ^ 2X8X0Xw.*.( U R W W D D G G I J ! U G K , . .   - ( ( 2.U G | @.O.J ! ! I J S G J G J U | H ",
"+.R J ~ ~ E ~ :X:XY E >X>X<X>X>X>X:X4.8XwX0X8./ U I J ~ R ! J K ! K R R U U 3 3 + . * P U I U U J D I ! Q J Q Q Q I J S G G G , ",
"2XW T R R T T Y Y 3X:X<X5X<X>X<X7X5X4X5.0Xw./ / 6._ ! ~ I J J @.J G S J 4.K < *.9.9.e.e.U G ! ! ! J J 4X_ I D I I I F S G G - , ",
"~ ~ ~ E D D F F F Y E ;X>X5X;X;X;X<X4X! 8Xw./ ( 6._ 4.4.Q ! 4.O.K K ! 2X5.U < 3 ,.{.0X0X6.G I S I I F _ D D S D D I L S - G , G ",
"2X~ ~ E E E E ~ ~ ~ E E E E E E 3X1XW D G L - = = = S J G J ! ! ! ! O.2X5.O.2.%.9.w.#X0Xe.P U G S S S L S L ( ( ; ; = & & = ; L ",
"E ~ :XE E ^ ,X2X6XT T E T R D J R J E ~ Q Q _ Q ! J G - - = = = ; - = S J J U 6.*.*.*.w.*.: : * - & - - * * - - - & & & & & & ; ",
"E E E ~ E Y E E E D Y E 4.! S J S J ~ ,X2X4X` ,XR +.5.K - - ) L 2 L = = - = = = ; * 2 *.5 X : : : * * * * * o X 2 * * * & ; ; ; "
};
