/* XPM */
static char *_4ba694dcff34f4cac7293b0f7bf8d09oMFPzgTGWk5pnYUD[] = {
/* columns rows colors chars-per-pixel */
"64 64 256 2 ",
"   c #261916",
".  c #38291A",
"X  c #2F2716",
"o  c #1D1627",
"O  c #261E27",
"+  c #261D33",
"@  c #2C2428",
"#  c #352827",
"$  c #2B2535",
"%  c #342C34",
"&  c #342C3C",
"*  c #382B36",
"=  c #3B343C",
"-  c #3A3437",
";  c #38342E",
":  c #172A33",
">  c #44331C",
",  c #442C19",
"<  c #422B27",
"1  c #46382A",
"2  c #523A26",
"3  c #443B3B",
"4  c #483937",
"5  c #523B37",
"6  c #643E3B",
"7  c #554527",
"8  c #4B4338",
"9  c #5C4C3C",
"0  c #564637",
"q  c #554932",
"w  c #624B39",
"e  c #66543A",
"r  c #6B5533",
"t  c #635524",
"y  c #14354A",
"u  c #183755",
"i  c #0E314F",
"p  c #342C46",
"a  c #283548",
"s  c #3B3543",
"d  c #3D3A44",
"f  c #38364A",
"g  c #293759",
"h  c #3B3C5B",
"j  c #363856",
"k  c #2A2B4F",
"l  c #1B3564",
"z  c #2A3968",
"x  c #333C6C",
"c  c #373B65",
"v  c #2A3A77",
"b  c #343C74",
"n  c #363C7A",
"m  c #2D2D64",
"M  c #291D4E",
"N  c #433C4B",
"B  c #473A46",
"V  c #433D53",
"C  c #463B59",
"Z  c #53374C",
"A  c #423B67",
"S  c #4C3C70",
"D  c #144656",
"F  c #27455A",
"G  c #3B455B",
"H  c #354B52",
"J  c #184B64",
"K  c #175A77",
"L  c #105A6D",
"P  c #3C436B",
"I  c #384467",
"U  c #275467",
"Y  c #2A4375",
"T  c #384677",
"R  c #375A76",
"E  c #2B536D",
"W  c #176678",
"Q  c #0B6876",
"!  c #2A6677",
"~  c #37677B",
"^  c #307074",
"/  c #44434C",
"(  c #4A454A",
")  c #574848",
"_  c #5B544B",
"`  c #474657",
"'  c #564857",
"]  c #595459",
"[  c #4C5255",
"{  c #654B47",
"}  c #685548",
"|  c #75584C",
" . c #685858",
".. c #755B57",
"X. c #644D55",
"o. c #77664B",
"O. c #786757",
"+. c #6B6354",
"@. c #454767",
"#. c #544C64",
"$. c #485769",
"%. c #5A5766",
"&. c #444A78",
"*. c #485678",
"=. c #565676",
"-. c #524579",
";. c #665C68",
":. c #6A5670",
">. c #46697A",
",. c #526B75",
"<. c #69646A",
"1. c #796768",
"2. c #6A6677",
"3. c #776976",
"4. c #7C7278",
"5. c #79736E",
"6. c #815B4C",
"7. c #8B6859",
"8. c #866B65",
"9. c #867478",
"0. c #8B736F",
"q. c #A57A6A",
"w. c #996D64",
"e. c #31807D",
"r. c #AF8877",
"t. c #8F847D",
"y. c #C4987F",
"u. c #293D85",
"i. c #323E84",
"p. c #2C3E93",
"a. c #193D90",
"s. c #1C5190",
"d. c #2C4288",
"f. c #384787",
"g. c #3C5588",
"h. c #294796",
"j. c #384A96",
"k. c #385597",
"l. c #2D5498",
"z. c #1B6888",
"x. c #19738B",
"c. c #1B7995",
"v. c #156995",
"b. c #286987",
"n. c #376B87",
"m. c #277888",
"M. c #387588",
"N. c #286A95",
"B. c #346D96",
"V. c #297695",
"C. c #367698",
"Z. c #1A49B0",
"A. c #2849A5",
"S. c #3849A6",
"D. c #3957A7",
"F. c #264CB9",
"G. c #374AB7",
"H. c #2854BA",
"J. c #3956B7",
"K. c #2751AA",
"L. c #3668A6",
"P. c #2A78A2",
"I. c #3977A7",
"U. c #3867B6",
"Y. c #3C77B3",
"T. c #2874B2",
"R. c #464A89",
"E. c #475689",
"W. c #434D96",
"Q. c #465797",
"!. c #565885",
"~. c #466686",
"^. c #566886",
"/. c #487689",
"(. c #58768A",
"). c #486598",
"_. c #467995",
"`. c #557097",
"'. c #797782",
"]. c #6E6F88",
"[. c #4759A9",
"{. c #475AB6",
"}. c #4E58AE",
"|. c #4565A9",
" X c #5877A6",
".X c #4468B8",
"XX c #5667B9",
"oX c #4673B7",
"OX c #5270A7",
"+X c #6978AA",
"@X c #1848C7",
"#X c #1A4AD9",
"$X c #1B52D5",
"%X c #254DC7",
"&X c #2957C9",
"*X c #3456C5",
"=X c #2757D7",
"-X c #3659D8",
";X c #334CD0",
":X c #2965CB",
">X c #2D66D7",
",X c #3568D9",
"<X c #366ACA",
"1X c #1E56E3",
"2X c #1D4CE3",
"3X c #265AE7",
"4X c #2B5AED",
"5X c #2C64ED",
"6X c #2B67E9",
"7X c #326AEC",
"8X c #3669E7",
"9X c #3874E9",
"0X c #2B69F7",
"qX c #3469F5",
"wX c #2E72FF",
"eX c #3974F9",
"rX c #1F63ED",
"tX c #475CC6",
"yX c #4556CE",
"uX c #4568C4",
"iX c #4B71CF",
"pX c #6576CA",
"aX c #4576E8",
"sX c #447AFA",
"dX c #486CEE",
"fX c #867B88",
"gX c #8B7A8E",
"hX c #288599",
"jX c #378797",
"kX c #348B91",
"lX c #2D88A6",
"zX c #3886A4",
"xX c #3A96A7",
"cX c #3791AF",
"vX c #3CA5AA",
"bX c #1D8495",
"nX c #458896",
"mX c #4D8C95",
"MX c #6C8598",
"NX c #4685A8",
"BX c #4898A9",
"VX c #5498A6",
"CX c #4785B7",
"ZX c #4895B6",
"AX c #5691AA",
"SX c #4EA7B5",
"DX c #5DA1AE",
"FX c #3D88F5",
"GX c #50A8C3",
"HX c #4986FC",
"JX c #518CFD",
"KX c #5B9EC8",
"LX c #91878E",
"PX c #AB948E",
"IX c #9E97AA",
"UX c #D7A791",
/* pixels */
"g.Q.).XXpXpXtX{.;X-XdX8XsXJXJXFXJX9X9XHXaXaXaX9XJXeXsXeXeXeX8XHXqX2X0X5XeX6XqX0XqX4X4XsXsXsX9X>X:X>X8X7X5XqXeXeXsX9X8X<XuXiXoXl.",
"g.g.Q.OXXXXX{.G.;XyXdX8XsXJXJXHXHX9X,X,X:X>X,X9XHXeXeX0XqXqX8XsX4X#X0X5XeX7X5X0X4X2X4XqXeX9X,X:X&X>X>X6X7XqXeXeXqXdXaXiXuXiXoXl.",
"z f.Q.Q.W.W.S.G.G.;X8X-X8XHXHXFXeXeX9X,X,X<X>X,XJXeXeX0X5X7X6X9X3X#X0X5XeX7X5XqX4X#X3XqX9X,X>X:X>X>X>X8X7XeXeXqX8X8XaXiXuX.XD.h.",
"Y g.).Q.W.W.S.S.G.*XdX-X8XHX9X9X6XeX8X:X<X<XH.&XHXeXqX5X5X5X6X7X3X#XqX7XeX7X7X7X4X2X3XdX9X>X:X:X&X>X>X>X>X8X6X=X8X%X*XuXtXD.S.k.",
").).`.OX XXX}.j.S.G.yX-X8XsX9X>X7X7X&XZ.H.F.Z.Z.9X8X3X3X5X5X7X8X3X#XqX7XeX7XqXqXqX2X=X8X,X&X:X:XH.&X&X&X=X=X=X=X,X*X*XtXuXuXXX}.",
" X).Q.`.+X+X[.p.p.S.yXyXaXJXHXsXeX9X>X:X<XJ.K.Z.,X8X=X3X3X=X3X=X1X#X5X7XeXqXqXqXqX#X#X=X=X%X&X>X&X=X>X>X,X8X8X8XaXaXiXuXuXpXpX[.",
"g.g.E.^.`.E.f.f.j.D.iXiXaXJXJXJXsX9XaXaXiXuXU.H.,XaX6X7X5X3X5X3X3X#XqX0XwX0X0X0XqX#X#X7X7X6X>X8X8X9X9X9X9XaXaXaX,XiXiXuX{.pXXXp.",
"l v E.E.T l z E.f.D.uXJ.H.&X&X>XaX>X,XiXuXU.uXuX,XHX9XsXeXeXsXeX0X1XeXwXwX0X0X0X0X2X3XsXJXsXeX9XsXeX7X8X8X8X,X&XZ.Z.D.{.[.k.j.i.",
"Y v T T I I x R.i.j.S.G.H.H.H.F.-X,X*XA.a.a.h.K.<X,X=X@XqXeXeXeX3X5XwXwXwX0X0XrX4X4X4XqX7X3X3X7X7X=X@X@X$X=X&XH.F.Z.h.D.D.j.f.f.",
"v z T I x I x T f.j.[.{.J.J.J.*X%X*XH.A.h.h.a.A.F.&X$X@X1X5X5XqX5XrXwXwXwXwXwXrX3X#X#X%X%X@X=X8X%X%X%X@X@X@XF.F.H.K.l.k.k.f.f.f.",
"x z z z z I x T f.Q.}.{.J.J.J.J.F.G.A.A.k.h.h.h.Z.&X=X1X1X3X5X5X5XrXwXwXwXwXwX4X7X=XF.F.H.*X*X*X%X*X&X&XH.H.H.H.K.K.h.h.f.d.Y v ",
"x m z g z I x T f.W.[.D.j.h.h.A.A.A.h.p.h.h.h.A.H.&X6X5X3X5XqX5X5X5XwXeXwXwX0X3X&XH.G.J.[.[.{..XD.D.A.A.A.A.A.h.h.h.h.d.d.T T v ",
"x g z z z P x f.R.W.W.j.h.h.h.h.h.h.u.u.u.u.p.A.H.%X=X1X1X3X5X3X3X0XeXeX0X4X6X-XJ.{.[.R.x m x *.E.E.f.f.d.h.h.u.h.h.h.i.f.f.T T ",
"x z z z x P b f.W.Q.W.j.j.j.l.l.h.h.d.d.d.d.h.K.&X=X=X1X1X3X3X3X3X0XeXeX4X=X-X*XXXQ.c p $ $ $ $ f G $.*.f.f.f.j.h.j.j.d.f.f.T x ",
"x z x x x P b f.R.W.Q.j.j.f.f.f.d.j.f.f.j.j.j.G.*X-X3X1X5X5X3X5X3X4XqXqX3X=X*XJ.f.g $ # 8 9 q ;   @ = G I P T f.f.f.f.f.f.T b z ",
"x z I x x b b f.i.j.Q.j.d.v Y Y T f.T n f.j.S.J.%X-X3X3X5X3X$X5X3X3X5X8X;XG.[.Q.M & 3 9 e r 7 7 7 1 ; d ` @.P b f.f.f.f.f.n c c ",
"v Y v v n n i.j.f.W.Q.f.T T x c =.=.!.R.R.W.S.{.*XyX-X-X-X4X5X3X3X2X-XdX{.}.T $ & 3 0 0 w e r 7 0 8 8 8 ( #.@.I T T b b b x c j ",
"z Y v v f.i.i.f.f.k.Q.T T &.A @.#.s 2.!.!.Q.[.}.XXtXyXyX-X-X4X4X#X@X%XpX}.=.f @ 4 8 0 w | 6.e 2 > 5 _ _ ( / ` @.T P b x x c h j ",
"z x z b T n i.f.f.g.E.T P &.@.#.( # d %.=.c +XE.f.j.}.tXyX-X=X-X=XF.J.pX`.G % # 8 9 } } | | | } 9 9 _ _ _ / ` @.P P x c x c j j ",
"z z z x n n i.Q.f.E.E.T @.=.#.] ) 4 3 ] %.a ].@.g z f.[.{.J.&X*XZ.A.|.OX@.$   . . 7 9 w e } | ..} w 9 } _ [ / G @.P c c j h j p ",
"x x z b T n n W.W.R.R.P @.:.%.;.' 4 9.' <.<.[ ` #.` @.R.W.k.D.J.h.l.g.P ` (  .8.o.o.o.O.8.8.O.| 0 w } } _ ( / ` @.c c j j j p p ",
"x x x T R.n n f.W.f.T c @.%.' X.' ' 3.Z ;.<.] ] ] ] #.=.!.E.j.j.Y g.*.@.] 8 .   X X . 1 0 | 8.8.| | } } _ ) ( / ` h j j f p p % ",
"b b x n f.n i.W.Q.Q.R.x C ' ) ) Z :.:.#.' ' 3.( 3 ( ] ;.2.^.*.Y T Y g o - 8 0 q 7 7 1 > . . 5 w 7.o.} e _ _ [ N ` h j k p p % % ",
"T v z v n n f.}.XXXXXXR.@.` ( ) Z S ].gX#.:.:.3 * B ]  .<.2.=.$.g I G $ - . . > } 9 0 0 0 5 1 . > e o.o.} _ ) d / f p p & % % % ",
"v v v v v i.[.XXXXpXXXQ.g %.) } 1.8.9.3.'.gX3.Z B   < 4 3 [ ] ` g P h $ @ # 5 1 X 1 0 ) 9 9 0 2 , , > e O.O._ / d f p p $ $ % % ",
"u.d.v d.i.u.[.XXiX{.[.OXc ].5.O.8.8.8.X.' 9.fX1. .Z 5 5 4 - - / j j @.$ * # . < 0 ; . 8 } | w 5 2 2 > . 7 +.+.( d s & $ $ @ @ @ ",
"u.d.v u.u.u.D.{.iXS.j.W.m MXLX8.r r o.7 1 } 1.1.....{ 5 8 3 - / j j -.+ * *   # 4 4 ; . 1 } } 0 q 7 2 > . ; ) ;.B s $ $ $ @ @ # ",
"v u.v v v u.S.J.J.G.S.i.c LXLXo.t t t 7 > 5 0 ) { 1.} 4 5 _ _ d j c @.o $ 3 @ # # 3 3 X   1 9 w 0 q q 9 1 X # ) B = $ $ $ @ O @ ",
"v v l v v u.S.J.S.{.{.W.!.fXO.o.r 2 7 7 1 1 4 ) { | } { )  .<.& h h h & B * * < B % # - ; . < 0 0 9 9 0 8 8 ;   s & + + O O O O ",
"v v l v v d.[.{.J.{.[.W.].3.} O.} ; 3 ) ) ( 4 )  .{ } 8... .5./ ` f f ] ] @ * 3 3 % % - ; @ # < 0 9 9 0 8 8 ; @ = p $ + O @ @ O ",
"b b l z b v k.[.tX{.[.R.!.3.} } B M C @.` ` B ) { } } 8.O.) ;.%./ & %.<.' # ; 3 % 3 3 % @ # # # 4 8 0 0 1 # ; 3 $ p & O O % % O ",
"b x k g z z f.j.S.[.XXR.=.fXO.. p M m j j V ( ) 4 O.} | { # 3 ( / d 4.;.= - 3 B N s = s = % * * # 8 ) 1 ; 3 3 @ o % $ o o @ @   ",
"m z z z z z T f.W.}.R.T LX'.) 3 C A c j G ` / ) X.5 | ..{ } } _ ) 4.<.( N ` ` f V ` ` f f ` ` s % @ 3 ( - % = - - % % % @ @ # # ",
"A c P c j g I T R.R.!.].IX2.B B f h I G G ` H )  .{ { 6.| } 8.0.PX9.] B d f ` @.h G C h h ` ` / / % % d d N N = B = - - - ; ; 3 ",
"C C C C V C @.@.!.S -.:.].Z 4 ) V c @.G G ` d ) ..8.6 | | 9 0.t.t. .* B ' ' %.#.C h ` @.` V f N [ = % = d ( ( d s & % * - * - 3 ",
"B B B N N V C A -.S S A C Z Z Z j j j g j H = ( ..8.{ { | ) +.5.5._ 3 ( <.LXIXLX2.=.` f f f V / / d d d s s d N s s = = = - = 3 ",
"f f f j h h c c m b n b m A C k j g g a j f - 5 ..8.| w .... .5. .] X.4.LXIXIXLX2.].2.%.%.%.` s d / / d s s s d s s = = = - % - ",
"a a a g g g z v g.g.W.Q.R.E.E.*.*.*.*.@.$.` = ) 8.w.7.| ..1.] 1.3 4 _ LXIXLXgX'.;.'.gXfXgXfX2.] / / d s N / d s & & & = = % % % ",
",.^.(.(.`.`. X X X XOX XOX X`. X^.^.^.=.$.` B } q.q.7.w.0.1. .;.) 4 4 1.LX4.9.LX'.'.'.2.:.2.3.3.] ] N = / ` N N N N N ( ( / B / ",
",.^.^.^.~.~.~.).g.).).).g.E.T R *.P P j j f ( 8.q.q.7.r.PX..;. .) 0 4  .9.<. .3.3.3.3.:.' B s N <.<.[ s N N N ` V N / ` ` ( ( ( ",
"f f j h I I c g I I P P I I G G h I g g I f B ..r.w.w.UXr.} ) 4  .0.) < ..X. .1.9.1.;.4.;.B ` N d ( %.2.%.V d N V V V N d N N / ",
"j h h h c c c @.I I h j f f h I h I z z P h B X.q.q.q.UXw.w 5 ) 9.0. .X.) 0 _ 1.1.9.9.3.;.` & V s d / #.#.` V V V V V V f f f f ",
"A A A A c c A S c A @.@.h h c c I I x Y T P h ' 0.r.q.y.6.2 < ..LX9.1.1.5 1 4 1.9.1.9.3.;.' $ V V p p j @.@.h h h h h h h j j f ",
"&.R.R.R.R.R.R.R.n T T T T T n b T T f.f.k.f.P ` 9.PXw.r.6.2 <  .9.1.0.1.5 1 #  .PX .4.fX;.' ' ` @.h k j P @.P c P P P P P I I I ",
"OX|.[.[.{.{.{.[.|.Q.g.j.k.[.{.|.Q.k.k.D.D.k.g.@.%.LX| r.6., < ) 1...1.} } 5 < } PX1.1.4.' N 2.#.!.&.T T &.E.f.f.E.E.E.E.E.E.E.E.",
"oX|.D.D.J.U..X.XoX|.D.L.U.uXiXuXoXL.U..XU.U.|.E.h 1.{ 7.| . # ) ) X. .) ..) 0 } ..9. .B & $ ` @.`.).Q.Q.Q.Q.Q.|.Q.Q.|.).).).).).",
"I.I.L.L.L.U.U.U.L.L.L.L.U.U.<XU.iXoXiXiX<X<X.X).P / ) 9 } 1 # 5 B ) ) ) ) ) }  .5  .( * & & p @.`.|.|.[.k.D.|.|.D.L.|.|.|.|.|.|.",
"NXNXCXCXoXY.L.L.CXCXY.Y.U.U.iXCXiXoXiXiX<X<X<XL.`.a ( # { { @ - / B -  .; 4 <.<.%.& / #.` ` V *.).|.L.k.l.l.D.L.D.L.U.oXoXoXoXoX",
"_._._.I.I.B.P.I.CXCXcXI.I.Y.Y.L.L.oXiX<XT.T.T.P.NXF s = 4 ) _ %.G a - @ 8 [ [ ,.`.`.`.>.*.].#.*. XY.I.L.L.I.Y.oXCXCXY.N.L.I.I.I.",
"B.B.B.B.N.V.C.I.N.N.N.B.I.NXCXCXI.Y.T.N.v.v.v.x.! /.%.* B ' [ '.^.E H ; 8 [ $.`.B.B._././.MX$.*.B.P.P.N.N.N.L.I.L.I.I.L.I.Y.I.I.",
"x.V.V.C.C.I.I.C.C.C.C.N.N.N.z.z.v.v.P.v.v.c.lXNXAX(.LX;.* ] 2.$.>.R %.] 1.<.,._.B.N.B.n.(.MX~ ~ B.B.P.N.N.N.N.L.B.B.N.N.N.N.N.N.",
"V.V.V.V.N.N.b.z.z.z.z.z.z.N.V.V.cXcXlXlXcXZXNX_.MXMX2.` [ 2.,.(.(.(.4.9.LX<.R ! z.z.n.~.(.MX~ ! C.C.I.C.B.N.B.B.B.C.C.I.I.I.Y.ZX",
"b.b.K K z.V.hXhXcXcXcXcXcXZXZXZXzXzXzXC.V.b.~ R ].].$.H ^ ^ kXVXVXMX3.8.0.;.>.M.z.b.~.^.].(.! L b.B.B.B.B.B.B.B.oXNXNXNXI.N.z.z.",
"C._.NXNXZXGXGXGXcXlXlXlXhXV.V.V.V.C.jXzXC.C.`.MXMX$.>.mXnXbXkXm.jX>.%...9.2.MXDXZXZX X^.].,.! ! b.b.b.b.B.B.b.b.b.C.C.zXzXzXzXcX",
"V.zXzXhXV.x.z.Q Q z.x.hXlXlXlXzXBXV.x.c.xXBXmX>.$.,.~ mXGXxXV.hXm.^ ,.3.fX$.M.hXZXZX X^.^.*.M.jXM.M.B.M.M.n.b.b.b.N.b.z.b.N.N.V.",
"hXhXc.Q L Q W Q V.V.zXBXxXhXhXhXzXxXxXxXlXm.n.>.>./.nXBXbXz.P.c.W M.,.'.'.H L L L z.n.~.(.>.nXBXAXAXAXmX_.M.n.n.b.C.C.V.C.V.N.z.",
"SXSXSXvXxXxXV.z.b.m.V.C.jXjXjXV.zXjXhXbXbXjXBXVX~ M.jXjXhXhXP.P.jXM.>.$.U U W x.bXhXkXnXnXnXxXSXVXAXmX_.~ ! U D J b.nXC.V.V.b.z.",
"jXxXBXSXSXZXBXjXC.m.b.W W b.m.m.b.b.m.V.hXhXjXjXkXkXkXhXbXc.P.P.b.^ ^ >.mXmXVXSXSXSXDXDXVXnXV.b.K J D D i i i i D K b.M.B.C.C.C.",
"u J b._.AXBXBXBXxXxXxXjXhXm.W L E E K W W W W W L Q Q Q x.c.P.P.xXxXmXmXVXVXVXAX_._.>.~ E F u i i i D J J U ! ~ ~ ! ! n.n.M.C.NX",
"u i u J U ! M.nXBXBXBXBXxXxXkXkX! ! K K L K W m.kXkXxXBXSXSXKXKXAXVXmXkX^ ! E Y l u y y y u m z J K ~ n.~ n./././.n.n.M._._.B.B.",
"~.E z u i i F E n.M.nXnXBXvXvXvXxXnXjXjXjXNXBXBXDXVXVXVXmX_./.~.&.I F y y y u i g g U U ! ~ n.).n.M._.M.n._.mX/.~ ~ ~ ~ n.R E u ",
"n.n.R R R F F F i D U ^ M.kXxXxXSXSXDXKXDXDXAXVXnX/.~ E F F u g k M : y u F Y T R R ~ M.kXjXNXNXC._.NX_./._./.>.E U F i u u l i ",
"W ! M.M.M.n.! U i i y y g R (.MXnXnXmXmX`.~.n.! D D y : : y y D U U U U ! ^ n.n.n.M.^ ^ kXkXzXzXC.M._._.~ U F D F y i i u Y g.).",
"jXjXm.W ! b.n.~ R R I g k k k a D D D u g u u i y D F H H H R ^ ^ ^ ^ ^ m.m.b.b.M.m.^ ^ bXbXx.z.b.J K ! J i u U ~ E R ~.~.E.~.`."
};
